<svg width="100" height="28" viewBox="0 0 100 28" fill="none" xmlns="http://www.w3.org/2000/svg">
<path d="M0 12C0 5.37258 5.37258 0 12 0H87.41C94.0374 0 99.41 5.37258 99.41 12V15.57C99.41 22.1974 94.0374 27.57 87.41 27.57H12C5.37259 27.57 0 22.1974 0 15.57V12Z" fill="url(#paint0_linear_1_1615)"/>
<path d="M2 13C2 6.92486 6.92487 2 13 2H86.41C92.4851 2 97.41 6.92487 97.41 13V14.57C97.41 20.6451 92.4851 25.57 86.41 25.57H13C6.92488 25.57 2 20.6451 2 14.57V13Z" fill="white"/>
<path d="M13.4842 8.68757V18.2148H12.0467V8.68757H13.4842ZM23.2673 8.68757V18.2148H21.9461L17.1034 11.2276H17.015V18.2148H15.5776V8.68757H16.908L21.7554 15.6842H21.8438V8.68757H23.2673ZM28.4484 18.2148H25.3642V8.68757H28.5461C29.4796 8.68757 30.2813 8.8783 30.9512 9.25977C31.6211 9.63813 32.1344 10.1824 32.491 10.8926C32.8508 11.5997 33.0307 12.4479 33.0307 13.4373C33.0307 14.4297 32.8492 15.2825 32.4864 15.9958C32.1266 16.7092 31.6056 17.2581 30.9233 17.6426C30.241 18.0241 29.4161 18.2148 28.4484 18.2148ZM26.8016 16.9588H28.3694C29.0951 16.9588 29.6983 16.8223 30.179 16.5494C30.6597 16.2734 31.0194 15.8749 31.2582 15.3539C31.497 14.8297 31.6165 14.1909 31.6165 13.4373C31.6165 12.6898 31.497 12.0556 31.2582 11.5346C31.0225 11.0136 30.6705 10.6181 30.2022 10.3483C29.7339 10.0785 29.1524 9.94361 28.4578 9.94361H26.8016V16.9588ZM40.9449 8.68757H42.387V14.9538C42.387 15.6206 42.2304 16.2114 41.9171 16.7262C41.6039 17.2379 41.1635 17.6411 40.596 17.9357C40.0284 18.2272 39.3632 18.373 38.6002 18.373C37.8404 18.373 37.1767 18.2272 36.6092 17.9357C36.0417 17.6411 35.6013 17.2379 35.288 16.7262C34.9748 16.2114 34.8182 15.6206 34.8182 14.9538V8.68757H36.2556V14.8375C36.2556 15.2686 36.3502 15.6516 36.5394 15.9865C36.7317 16.3215 37.0031 16.5851 37.3535 16.7774C37.704 16.9666 38.1195 17.0612 38.6002 17.0612C39.0841 17.0612 39.5012 16.9666 39.8516 16.7774C40.2052 16.5851 40.475 16.3215 40.6611 15.9865C40.8503 15.6516 40.9449 15.2686 40.9449 14.8375V8.68757ZM49.6731 11.1903C49.6235 10.75 49.4188 10.4088 49.0591 10.1669C48.6993 9.9219 48.2465 9.7994 47.7007 9.7994C47.3099 9.7994 46.9719 9.86142 46.6866 9.98548C46.4012 10.1064 46.1795 10.2739 46.0213 10.4879C45.8663 10.6988 45.7887 10.9391 45.7887 11.2089C45.7887 11.4353 45.8415 11.6307 45.9469 11.7951C46.0554 11.9595 46.1966 12.0975 46.3702 12.2091C46.547 12.3177 46.7362 12.4092 46.9378 12.4836C47.1394 12.5549 47.3332 12.6138 47.5193 12.6604L48.4497 12.9023C48.7536 12.9767 49.0653 13.0775 49.3847 13.2047C49.7042 13.3318 50.0003 13.4993 50.2733 13.7071C50.5462 13.9149 50.7664 14.1723 50.9338 14.4793C51.1044 14.7863 51.1897 15.1538 51.1897 15.5818C51.1897 16.1214 51.0501 16.6006 50.771 17.0193C50.495 17.438 50.0934 17.7683 49.5661 18.0102C49.042 18.2521 48.4078 18.373 47.6635 18.373C46.9502 18.373 46.333 18.2598 45.812 18.0334C45.291 17.807 44.8831 17.486 44.5885 17.0705C44.2939 16.6518 44.1311 16.1556 44.1001 15.5818H45.5422C45.5701 15.9261 45.6817 16.2129 45.8771 16.4424C46.0756 16.6688 46.3284 16.8379 46.6354 16.9495C46.9455 17.058 47.2851 17.1123 47.6542 17.1123C48.0605 17.1123 48.4218 17.0487 48.7381 16.9216C49.0575 16.7913 49.3087 16.6115 49.4917 16.382C49.6747 16.1494 49.7662 15.878 49.7662 15.5679C49.7662 15.2856 49.6856 15.0546 49.5243 14.8747C49.3661 14.6948 49.1506 14.546 48.8777 14.4281C48.6078 14.3103 48.3024 14.2064 47.9612 14.1164L46.8354 13.8094C46.0725 13.6016 45.4677 13.2961 45.0212 12.893C44.5777 12.4898 44.3559 11.9564 44.3559 11.2927C44.3559 10.7437 44.5048 10.2646 44.8025 9.85522C45.1002 9.44584 45.5034 9.12796 46.012 8.90156C46.5206 8.67206 47.0944 8.55731 47.7333 8.55731C48.3783 8.55731 48.9474 8.67051 49.4405 8.89691C49.9368 9.12331 50.3275 9.43499 50.6128 9.83196C50.8982 10.2258 51.047 10.6786 51.0594 11.1903H49.6731ZM52.4376 9.925V8.68757H59.811V9.925H56.8384V18.2148H55.4056V9.925H52.4376ZM61.4404 18.2148V8.68757H64.8363C65.5744 8.68757 66.1869 8.81472 66.6738 9.06903C67.1638 9.32334 67.5298 9.67534 67.7717 10.125C68.0136 10.5716 68.1346 11.088 68.1346 11.6741C68.1346 12.2572 68.0121 12.7705 67.7671 13.214C67.5252 13.6543 67.1592 13.997 66.6692 14.242C66.1823 14.4871 65.5698 14.6096 64.8317 14.6096H62.2591V13.3721H64.7014C65.1666 13.3721 65.545 13.3054 65.8365 13.1721C66.1311 13.0387 66.3466 12.8449 66.4831 12.5906C66.6196 12.3363 66.6878 12.0308 66.6878 11.6741C66.6878 11.3144 66.618 11.0027 66.4785 10.7391C66.342 10.4755 66.1265 10.2739 65.8318 10.1343C65.5403 9.99168 65.1573 9.92035 64.6828 9.92035H62.8778V18.2148H61.4404ZM66.1435 13.9164L68.4974 18.2148H66.8599L64.5525 13.9164H66.1435ZM71.3212 8.68757V18.2148H69.8837V8.68757H71.3212ZM73.4146 18.2148V8.68757H79.3877V9.925H74.852V12.8278H79.076V14.0606H74.852V16.9774H79.4435V18.2148H73.4146ZM86.5041 11.1903C86.4545 10.75 86.2498 10.4088 85.89 10.1669C85.5303 9.9219 85.0775 9.7994 84.5317 9.7994C84.1409 9.7994 83.8028 9.86142 83.5175 9.98548C83.2322 10.1064 83.0105 10.2739 82.8523 10.4879C82.6972 10.6988 82.6197 10.9391 82.6197 11.2089C82.6197 11.4353 82.6724 11.6307 82.7779 11.7951C82.8864 11.9595 83.0275 12.0975 83.2012 12.2091C83.378 12.3177 83.5671 12.4092 83.7687 12.4836C83.9703 12.5549 84.1641 12.6138 84.3502 12.6604L85.2806 12.9023C85.5846 12.9767 85.8962 13.0775 86.2157 13.2047C86.5351 13.3318 86.8313 13.4993 87.1042 13.7071C87.3771 13.9149 87.5973 14.1723 87.7648 14.4793C87.9354 14.7863 88.0206 15.1538 88.0206 15.5818C88.0206 16.1214 87.8811 16.6006 87.602 17.0193C87.326 17.438 86.9243 17.7683 86.3971 18.0102C85.873 18.2521 85.2388 18.373 84.4944 18.373C83.7811 18.373 83.164 18.2598 82.6429 18.0334C82.1219 17.807 81.7141 17.486 81.4195 17.0705C81.1249 16.6518 80.962 16.1556 80.931 15.5818H82.3731C82.401 15.9261 82.5127 16.2129 82.7081 16.4424C82.9066 16.6688 83.1593 16.8379 83.4664 16.9495C83.7765 17.058 84.1161 17.1123 84.4851 17.1123C84.8914 17.1123 85.2527 17.0487 85.5691 16.9216C85.8885 16.7913 86.1397 16.6115 86.3227 16.382C86.5057 16.1494 86.5971 15.878 86.5971 15.5679C86.5971 15.2856 86.5165 15.0546 86.3552 14.8747C86.1971 14.6948 85.9815 14.546 85.7086 14.4281C85.4388 14.3103 85.1333 14.2064 84.7922 14.1164L83.6664 13.8094C82.9035 13.6016 82.2987 13.2961 81.8521 12.893C81.4086 12.4898 81.1869 11.9564 81.1869 11.2927C81.1869 10.7437 81.3357 10.2646 81.6335 9.85522C81.9312 9.44584 82.3344 9.12796 82.843 8.90156C83.3516 8.67206 83.9253 8.55731 84.5642 8.55731C85.2093 8.55731 85.7784 8.67051 86.2715 8.89691C86.7677 9.12331 87.1585 9.43499 87.4438 9.83196C87.7291 10.2258 87.878 10.6786 87.8904 11.1903H86.5041Z" fill="#090F1D"/>
<defs>
<linearGradient id="paint0_linear_1_1615" x1="0" y1="13.785" x2="99.41" y2="13.785" gradientUnits="userSpaceOnUse">
<stop stop-color="#F5CB94"/>
<stop offset="1" stop-color="#99D2EC"/>
</linearGradient>
</defs>
</svg>
