<svg width="129" height="28" viewBox="0 0 129 28" fill="none" xmlns="http://www.w3.org/2000/svg">
<path d="M0 12C0 5.37258 5.37258 0 12 0H116.65C123.277 0 128.65 5.37258 128.65 12V15.57C128.65 22.1974 123.277 27.57 116.65 27.57H12C5.37258 27.57 0 22.1974 0 15.57V12Z" fill="url(#paint0_linear_1_1899)"/>
<path d="M2 13C2 6.92486 6.92487 2 13 2H115.65C121.725 2 126.65 6.92487 126.65 13V14.57C126.65 20.6451 121.725 25.57 115.65 25.57H13C6.92488 25.57 2 20.6451 2 14.57V13Z" fill="white"/>
<path d="M12.8515 18.2148H11.3256L14.7542 8.68757H16.4149L19.8434 18.2148H18.3176L15.6241 10.4181H15.5496L12.8515 18.2148ZM13.1074 14.4839H18.0571V15.6935H13.1074V14.4839ZM22.6567 8.68757V18.2148H21.2193V8.68757H22.6567ZM29.0218 18.2148H27.496L30.9245 8.68757H32.5852L36.0137 18.2148H34.4879L31.7944 10.4181H31.72L29.0218 18.2148ZM29.2777 14.4839H34.2274V15.6935H29.2777V14.4839ZM43.3895 11.6974C43.2995 11.4152 43.1786 11.1624 43.0266 10.9391C42.8778 10.7127 42.6994 10.5205 42.4916 10.3623C42.2838 10.201 42.0466 10.0785 41.7799 9.99478C41.5163 9.91104 41.2263 9.86918 40.91 9.86918C40.3734 9.86918 39.8896 10.0072 39.4585 10.2832C39.0275 10.5592 38.6863 10.9639 38.4351 11.4974C38.187 12.0277 38.0629 12.6774 38.0629 13.4466C38.0629 14.2188 38.1885 14.8716 38.4398 15.405C38.691 15.9385 39.0352 16.3432 39.4725 16.6192C39.9098 16.8952 40.4075 17.0332 40.9658 17.0332C41.4837 17.0332 41.935 16.9278 42.3195 16.7169C42.7072 16.506 43.0065 16.2083 43.2173 15.8237C43.4313 15.4361 43.5383 14.9802 43.5383 14.456L43.9105 14.5258H41.1844V13.3396H44.9293V14.4235C44.9293 15.2236 44.7587 15.9183 44.4176 16.5076C44.0795 17.0937 43.6112 17.5465 43.0127 17.8659C42.4172 18.1854 41.7349 18.3451 40.9658 18.3451C40.1036 18.3451 39.3469 18.1466 38.6956 17.7496C38.0474 17.3527 37.5419 16.7898 37.1791 16.061C36.8162 15.3291 36.6348 14.4607 36.6348 13.4559C36.6348 12.696 36.7402 12.0137 36.9511 11.409C37.162 10.8042 37.4582 10.291 37.8397 9.86918C38.2242 9.44429 38.6755 9.12021 39.1934 8.89691C39.7144 8.67051 40.2835 8.55731 40.9007 8.55731C41.4155 8.55731 41.8946 8.6333 42.3381 8.78526C42.7847 8.93723 43.1817 9.15277 43.529 9.43189C43.8795 9.71101 44.1695 10.0429 44.399 10.4274C44.6285 10.8089 44.7835 11.2322 44.8642 11.6974H43.3895ZM46.754 18.2148V8.68757H52.7272V9.925H48.1915V12.8278H52.4155V14.0606H48.1915V16.9774H52.783V18.2148H46.754ZM62.337 8.68757V18.2148H61.0159L56.1731 11.2276H56.0847V18.2148H54.6473V8.68757H55.9778L60.8251 15.6842H60.9135V8.68757H62.337ZM63.9641 9.925V8.68757H71.3375V9.925H68.3648V18.2148H66.932V9.925H63.9641ZM75.9639 9.925V8.68757H83.3373V9.925H80.3646V18.2148H78.9318V9.925H75.9639ZM84.2316 8.68757H85.8645L88.3533 13.0186H88.4556L90.9444 8.68757H92.5773L89.1208 14.4746V18.2148H87.688V14.4746L84.2316 8.68757ZM93.9345 18.2148V8.68757H97.3304C98.0717 8.68757 98.6857 8.82248 99.1726 9.09229C99.6595 9.36211 100.024 9.73117 100.266 10.1995C100.508 10.6647 100.629 11.1888 100.629 11.7718C100.629 12.358 100.506 12.8852 100.261 13.3535C100.019 13.8187 99.6533 14.1878 99.1633 14.4607C98.6764 14.7305 98.0639 14.8654 97.3258 14.8654H94.9905V13.6466H97.1955C97.6638 13.6466 98.0437 13.566 98.3353 13.4047C98.6268 13.2403 98.8408 13.017 98.9772 12.7348C99.1137 12.4526 99.1819 12.1316 99.1819 11.7718C99.1819 11.4121 99.1137 11.0926 98.9772 10.8135C98.8408 10.5344 98.6252 10.3158 98.3306 10.1576C98.0391 9.99943 97.6545 9.92035 97.1769 9.92035H95.372V18.2148H93.9345ZM102.314 18.2148V8.68757H108.287V9.925H103.751V12.8278H107.975V14.0606H103.751V16.9774H108.343V18.2148H102.314ZM115.403 11.1903C115.354 10.75 115.149 10.4088 114.789 10.1669C114.43 9.9219 113.977 9.7994 113.431 9.7994C113.04 9.7994 112.702 9.86142 112.417 9.98548C112.132 10.1064 111.91 10.2739 111.752 10.4879C111.597 10.6988 111.519 10.9391 111.519 11.2089C111.519 11.4353 111.572 11.6307 111.677 11.7951C111.786 11.9595 111.927 12.0975 112.101 12.2091C112.277 12.3177 112.466 12.4092 112.668 12.4836C112.87 12.5549 113.063 12.6138 113.25 12.6604L114.18 12.9023C114.484 12.9767 114.796 13.0775 115.115 13.2047C115.434 13.3318 115.731 13.4993 116.004 13.7071C116.276 13.9149 116.497 14.1723 116.664 14.4793C116.835 14.7863 116.92 15.1538 116.92 15.5818C116.92 16.1214 116.78 16.6006 116.501 17.0193C116.225 17.438 115.824 17.7683 115.296 18.0102C114.772 18.2521 114.138 18.373 113.394 18.373C112.68 18.373 112.063 18.2598 111.542 18.0334C111.021 17.807 110.613 17.486 110.319 17.0705C110.024 16.6518 109.861 16.1556 109.83 15.5818H111.272C111.3 15.9261 111.412 16.2129 111.607 16.4424C111.806 16.6688 112.059 16.8379 112.366 16.9495C112.676 17.058 113.015 17.1123 113.384 17.1123C113.791 17.1123 114.152 17.0487 114.468 16.9216C114.788 16.7913 115.039 16.6115 115.222 16.382C115.405 16.1494 115.496 15.878 115.496 15.5679C115.496 15.2856 115.416 15.0546 115.255 14.8747C115.096 14.6948 114.881 14.546 114.608 14.4281C114.338 14.3103 114.033 14.2064 113.691 14.1164L112.566 13.8094C111.803 13.6016 111.198 13.2961 110.751 12.893C110.308 12.4898 110.086 11.9564 110.086 11.2927C110.086 10.7437 110.235 10.2646 110.533 9.85522C110.831 9.44584 111.234 9.12796 111.742 8.90156C112.251 8.67206 112.825 8.55731 113.464 8.55731C114.109 8.55731 114.678 8.67051 115.171 8.89691C115.667 9.12331 116.058 9.43499 116.343 9.83196C116.628 10.2258 116.777 10.6786 116.79 11.1903H115.403Z" fill="#090F1D"/>
<defs>
<linearGradient id="paint0_linear_1_1899" x1="0" y1="13.785" x2="128.65" y2="13.785" gradientUnits="userSpaceOnUse">
<stop stop-color="#F5CB94"/>
<stop offset="1" stop-color="#99D2EC"/>
</linearGradient>
</defs>
</svg>
