<svg width="111" height="28" viewBox="0 0 111 28" fill="none" xmlns="http://www.w3.org/2000/svg">
<path d="M0 12C0 5.37258 5.37258 0 12 0H98.1C104.727 0 110.1 5.37258 110.1 12V15.57C110.1 22.1974 104.727 27.57 98.1 27.57H12C5.37257 27.57 0 22.1974 0 15.57V12Z" fill="url(#paint0_linear_1_1831)"/>
<path d="M2 13C2 6.92486 6.92487 2 13 2H97.1C103.175 2 108.1 6.92487 108.1 13V14.57C108.1 20.6451 103.175 25.57 97.1 25.57H13C6.92486 25.57 2 20.6451 2 14.57V13Z" fill="white"/>
<path d="M19.9597 11.7858H18.5083C18.4525 11.4757 18.3486 11.2027 18.1966 10.967C18.0447 10.7313 17.8586 10.5313 17.6384 10.3669C17.4182 10.2026 17.1716 10.0785 16.8987 9.99478C16.6289 9.91104 16.342 9.86918 16.0381 9.86918C15.4892 9.86918 14.9976 10.0072 14.5634 10.2832C14.1323 10.5592 13.7912 10.9639 13.54 11.4974C13.2919 12.0308 13.1678 12.6821 13.1678 13.4512C13.1678 14.2265 13.2919 14.8809 13.54 15.4143C13.7912 15.9478 14.1339 16.3509 14.5681 16.6239C15.0023 16.8968 15.4907 17.0332 16.0335 17.0332C16.3343 17.0332 16.6196 16.9929 16.8894 16.9123C17.1623 16.8286 17.4089 16.706 17.6291 16.5448C17.8493 16.3835 18.0354 16.1866 18.1873 15.954C18.3424 15.7183 18.4494 15.4485 18.5083 15.1445L19.9597 15.1492C19.8822 15.6175 19.7318 16.0486 19.5085 16.4424C19.2883 16.8332 19.0045 17.1712 18.6572 17.4566C18.3129 17.7388 17.9191 17.9574 17.4756 18.1125C17.0321 18.2676 16.5483 18.3451 16.0241 18.3451C15.1992 18.3451 14.4642 18.1497 13.8191 17.7589C13.174 17.3651 12.6654 16.8022 12.2933 16.0703C11.9242 15.3384 11.7397 14.4653 11.7397 13.4512C11.7397 12.434 11.9257 11.5609 12.2979 10.8321C12.6701 10.1002 13.1787 9.53888 13.8238 9.14812C14.4688 8.75425 15.2023 8.55731 16.0241 8.55731C16.5297 8.55731 17.0011 8.6302 17.4384 8.77596C17.8787 8.91862 18.2742 9.12951 18.6246 9.40863C18.9751 9.68465 19.265 10.0227 19.4945 10.4228C19.724 10.8197 19.8791 11.2741 19.9597 11.7858ZM29.9557 13.4512C29.9557 14.4684 29.7696 15.343 29.3975 16.0749C29.0253 16.8037 28.5151 17.3651 27.8669 17.7589C27.2219 18.1497 26.4884 18.3451 25.6666 18.3451C24.8416 18.3451 24.105 18.1497 23.4569 17.7589C22.8118 17.3651 22.3032 16.8022 21.931 16.0703C21.5589 15.3384 21.3728 14.4653 21.3728 13.4512C21.3728 12.434 21.5589 11.5609 21.931 10.8321C22.3032 10.1002 22.8118 9.53888 23.4569 9.14812C24.105 8.75425 24.8416 8.55731 25.6666 8.55731C26.4884 8.55731 27.2219 8.75425 27.8669 9.14812C28.5151 9.53888 29.0253 10.1002 29.3975 10.8321C29.7696 11.5609 29.9557 12.434 29.9557 13.4512ZM28.5322 13.4512C28.5322 12.6759 28.4066 12.023 28.1554 11.4927C27.9073 10.9593 27.5661 10.5561 27.1319 10.2832C26.7008 10.0072 26.2124 9.86918 25.6666 9.86918C25.1176 9.86918 24.6276 10.0072 24.1965 10.2832C23.7654 10.5561 23.4243 10.9593 23.1731 11.4927C22.925 12.023 22.8009 12.6759 22.8009 13.4512C22.8009 14.2265 22.925 14.8809 23.1731 15.4143C23.4243 15.9447 23.7654 16.3478 24.1965 16.6239C24.6276 16.8968 25.1176 17.0332 25.6666 17.0332C26.2124 17.0332 26.7008 16.8968 27.1319 16.6239C27.5661 16.3478 27.9073 15.9447 28.1554 15.4143C28.4066 14.8809 28.5322 14.2265 28.5322 13.4512ZM31.7479 8.68757H33.4924L36.5255 16.0935H36.6371L39.6702 8.68757H41.4147V18.2148H40.047V11.3206H39.9586L37.1488 18.2009H36.0137L33.2039 11.3159H33.1156V18.2148H31.7479V8.68757ZM43.5046 18.2148V8.68757H46.9006C47.6418 8.68757 48.2558 8.82248 48.7427 9.09229C49.2297 9.36211 49.5941 9.73117 49.836 10.1995C50.0779 10.6647 50.1988 11.1888 50.1988 11.7718C50.1988 12.358 50.0763 12.8852 49.8313 13.3535C49.5894 13.8187 49.2235 14.1878 48.7334 14.4607C48.2465 14.7305 47.634 14.8654 46.8959 14.8654H44.5606V13.6466H46.7657C47.234 13.6466 47.6139 13.566 47.9054 13.4047C48.1969 13.2403 48.4109 13.017 48.5474 12.7348C48.6838 12.4526 48.7521 12.1316 48.7521 11.7718C48.7521 11.4121 48.6838 11.0926 48.5474 10.8135C48.4109 10.5344 48.1954 10.3158 47.9007 10.1576C47.6092 9.99943 47.2246 9.92035 46.747 9.92035H44.9421V18.2148H43.5046ZM51.6782 18.2148H50.1523L53.5808 8.68757H55.2416L58.6701 18.2148H57.1442L54.4507 10.4181H54.3763L51.6782 18.2148ZM51.934 14.4839H56.8837V15.6935H51.934V14.4839ZM60.0459 18.2148V8.68757H63.4419C64.18 8.68757 64.7925 8.81472 65.2794 9.06903C65.7694 9.32334 66.1354 9.67534 66.3773 10.125C66.6192 10.5716 66.7401 11.088 66.7401 11.6741C66.7401 12.2572 66.6176 12.7705 66.3726 13.214C66.1307 13.6543 65.7648 13.997 65.2748 14.242C64.7878 14.4871 64.1753 14.6096 63.4372 14.6096H60.8647V13.3721H63.307C63.7722 13.3721 64.1505 13.3054 64.442 13.1721C64.7367 13.0387 64.9522 12.8449 65.0887 12.5906C65.2251 12.3363 65.2934 12.0308 65.2934 11.6741C65.2934 11.3144 65.2236 11.0027 65.084 10.7391C64.9476 10.4755 64.732 10.2739 64.4374 10.1343C64.1459 9.99168 63.7629 9.92035 63.2884 9.92035H61.4834V18.2148H60.0459ZM64.7491 13.9164L67.103 18.2148H65.4655L63.1581 13.9164H64.7491ZM69.9267 8.68757V18.2148H68.4893V8.68757H69.9267ZM77.2164 11.1903C77.1668 10.75 76.9621 10.4088 76.6023 10.1669C76.2426 9.9219 75.7898 9.7994 75.244 9.7994C74.8532 9.7994 74.5152 9.86142 74.2298 9.98548C73.9445 10.1064 73.7228 10.2739 73.5646 10.4879C73.4095 10.6988 73.332 10.9391 73.332 11.2089C73.332 11.4353 73.3847 11.6307 73.4902 11.7951C73.5987 11.9595 73.7398 12.0975 73.9135 12.2091C74.0903 12.3177 74.2795 12.4092 74.481 12.4836C74.6826 12.5549 74.8765 12.6138 75.0625 12.6604L75.9929 12.9023C76.2969 12.9767 76.6085 13.0775 76.928 13.2047C77.2474 13.3318 77.5436 13.4993 77.8165 13.7071C78.0894 13.9149 78.3096 14.1723 78.4771 14.4793C78.6477 14.7863 78.733 15.1538 78.733 15.5818C78.733 16.1214 78.5934 16.6006 78.3143 17.0193C78.0383 17.438 77.6366 17.7683 77.1094 18.0102C76.5853 18.2521 75.9511 18.373 75.2067 18.373C74.4934 18.373 73.8763 18.2598 73.3553 18.0334C72.8342 17.807 72.4264 17.486 72.1318 17.0705C71.8372 16.6518 71.6743 16.1556 71.6433 15.5818H73.0854C73.1134 15.9261 73.225 16.2129 73.4204 16.4424C73.6189 16.6688 73.8716 16.8379 74.1787 16.9495C74.4888 17.058 74.8284 17.1123 75.1974 17.1123C75.6037 17.1123 75.965 17.0487 76.2814 16.9216C76.6008 16.7913 76.852 16.6115 77.035 16.382C77.218 16.1494 77.3094 15.878 77.3094 15.5679C77.3094 15.2856 77.2288 15.0546 77.0675 14.8747C76.9094 14.6948 76.6938 14.546 76.4209 14.4281C76.1511 14.3103 75.8456 14.2064 75.5045 14.1164L74.3787 13.8094C73.6158 13.6016 73.011 13.2961 72.5644 12.893C72.1209 12.4898 71.8992 11.9564 71.8992 11.2927C71.8992 10.7437 72.048 10.2646 72.3458 9.85522C72.6435 9.44584 73.0467 9.12796 73.5553 8.90156C74.0639 8.67206 74.6377 8.55731 75.2765 8.55731C75.9216 8.55731 76.4907 8.67051 76.9838 8.89691C77.48 9.12331 77.8708 9.43499 78.1561 9.83196C78.4414 10.2258 78.5903 10.6786 78.6027 11.1903H77.2164ZM88.7266 13.4512C88.7266 14.4684 88.5405 15.343 88.1684 16.0749C87.7962 16.8037 87.286 17.3651 86.6379 17.7589C85.9928 18.1497 85.2593 18.3451 84.4375 18.3451C83.6125 18.3451 82.8759 18.1497 82.2278 17.7589C81.5827 17.3651 81.0741 16.8022 80.7019 16.0703C80.3298 15.3384 80.1437 14.4653 80.1437 13.4512C80.1437 12.434 80.3298 11.5609 80.7019 10.8321C81.0741 10.1002 81.5827 9.53888 82.2278 9.14812C82.8759 8.75425 83.6125 8.55731 84.4375 8.55731C85.2593 8.55731 85.9928 8.75425 86.6379 9.14812C87.286 9.53888 87.7962 10.1002 88.1684 10.8321C88.5405 11.5609 88.7266 12.434 88.7266 13.4512ZM87.3031 13.4512C87.3031 12.6759 87.1775 12.023 86.9263 11.4927C86.6782 10.9593 86.337 10.5561 85.9028 10.2832C85.4718 10.0072 84.9833 9.86918 84.4375 9.86918C83.8885 9.86918 83.3985 10.0072 82.9674 10.2832C82.5363 10.5561 82.1952 10.9593 81.944 11.4927C81.6959 12.023 81.5718 12.6759 81.5718 13.4512C81.5718 14.2265 81.6959 14.8809 81.944 15.4143C82.1952 15.9447 82.5363 16.3478 82.9674 16.6239C83.3985 16.8968 83.8885 17.0332 84.4375 17.0332C84.9833 17.0332 85.4718 16.8968 85.9028 16.6239C86.337 16.3478 86.6782 15.9447 86.9263 15.4143C87.1775 14.8809 87.3031 14.2265 87.3031 13.4512ZM98.2085 8.68757V18.2148H96.8873L92.0446 11.2276H91.9562V18.2148H90.5188V8.68757H91.8492L96.6966 15.6842H96.785V8.68757H98.2085Z" fill="#090F1D"/>
<defs>
<linearGradient id="paint0_linear_1_1831" x1="0" y1="13.785" x2="110.1" y2="13.785" gradientUnits="userSpaceOnUse">
<stop stop-color="#F5CB94"/>
<stop offset="1" stop-color="#99D2EC"/>
</linearGradient>
</defs>
</svg>
