<svg width="66" height="28" viewBox="0 0 66 28" fill="none" xmlns="http://www.w3.org/2000/svg">
<path d="M0 12C0 5.37258 5.37258 0 12 0H53.61C60.2374 0 65.61 5.37258 65.61 12V15.57C65.61 22.1974 60.2374 27.57 53.61 27.57H12C5.37258 27.57 0 22.1974 0 15.57V12Z" fill="url(#paint0_linear_1_1246)"/>
<path d="M2 13C2 6.92486 6.92487 2 13 2H52.61C58.6851 2 63.61 6.92487 63.61 13V14.57C63.61 20.6451 58.6851 25.57 52.61 25.57H13C6.92487 25.57 2 20.6451 2 14.57V13Z" fill="white"/>
<path d="M12.0467 18.2148V8.68757H15.5357C16.2118 8.68757 16.7716 8.79922 17.2151 9.02251C17.6585 9.24271 17.9904 9.54199 18.2106 9.92035C18.4308 10.2956 18.5409 10.7189 18.5409 11.1903C18.5409 11.5873 18.468 11.9223 18.3222 12.1952C18.1765 12.465 17.9811 12.6821 17.7361 12.8464C17.4942 13.0077 17.2275 13.1256 16.9359 13.2V13.293C17.2523 13.3085 17.5609 13.4109 17.8617 13.6001C18.1656 13.7862 18.4168 14.0513 18.6153 14.3956C18.8138 14.7398 18.913 15.1585 18.913 15.6516C18.913 16.1385 18.7983 16.5758 18.5688 16.9635C18.3424 17.348 17.9919 17.6535 17.5174 17.8799C17.0429 18.1032 16.4366 18.2148 15.6985 18.2148H12.0467ZM13.4842 16.9821H15.5589C16.2474 16.9821 16.7406 16.8487 17.0383 16.582C17.336 16.3153 17.4849 15.9819 17.4849 15.5818C17.4849 15.281 17.4089 15.005 17.2569 14.7538C17.105 14.5026 16.8879 14.3025 16.6056 14.1537C16.3265 14.0048 15.9947 13.9304 15.6101 13.9304H13.4842V16.9821ZM13.4842 12.8092H15.4101C15.7326 12.8092 16.0226 12.7472 16.28 12.6232C16.5405 12.4991 16.7468 12.3254 16.8987 12.1021C17.0538 11.8757 17.1313 11.609 17.1313 11.302C17.1313 10.9081 16.9933 10.5778 16.7173 10.3111C16.4413 10.0444 16.0179 9.91104 15.4473 9.91104H13.4842V12.8092ZM20.618 18.2148V8.68757H22.0555V16.9774H26.3725V18.2148H20.618ZM35.9172 13.4512C35.9172 14.4684 35.7311 15.343 35.359 16.0749C34.9868 16.8037 34.4766 17.3651 33.8285 17.7589C33.1834 18.1497 32.4499 18.3451 31.6281 18.3451C30.8031 18.3451 30.0666 18.1497 29.4184 17.7589C28.7733 17.3651 28.2647 16.8022 27.8925 16.0703C27.5204 15.3384 27.3343 14.4653 27.3343 13.4512C27.3343 12.434 27.5204 11.5609 27.8925 10.8321C28.2647 10.1002 28.7733 9.53888 29.4184 9.14812C30.0666 8.75425 30.8031 8.55731 31.6281 8.55731C32.4499 8.55731 33.1834 8.75425 33.8285 9.14812C34.4766 9.53888 34.9868 10.1002 35.359 10.8321C35.7311 11.5609 35.9172 12.434 35.9172 13.4512ZM34.4937 13.4512C34.4937 12.6759 34.3681 12.023 34.1169 11.4927C33.8688 10.9593 33.5276 10.5561 33.0935 10.2832C32.6624 10.0072 32.1739 9.86918 31.6281 9.86918C31.0791 9.86918 30.5891 10.0072 30.1581 10.2832C29.727 10.5561 29.3858 10.9593 29.1346 11.4927C28.8865 12.023 28.7625 12.6759 28.7625 13.4512C28.7625 14.2265 28.8865 14.8809 29.1346 15.4143C29.3858 15.9447 29.727 16.3478 30.1581 16.6239C30.5891 16.8968 31.0791 17.0332 31.6281 17.0332C32.1739 17.0332 32.6624 16.8968 33.0935 16.6239C33.5276 16.3478 33.8688 15.9447 34.1169 15.4143C34.3681 14.8809 34.4937 14.2265 34.4937 13.4512ZM44.1571 11.6974C44.0671 11.4152 43.9462 11.1624 43.7942 10.9391C43.6453 10.7127 43.467 10.5205 43.2592 10.3623C43.0514 10.201 42.8142 10.0785 42.5475 9.99478C42.2838 9.91104 41.9939 9.86918 41.6775 9.86918C41.141 9.86918 40.6572 10.0072 40.2261 10.2832C39.795 10.5592 39.4539 10.9639 39.2027 11.4974C38.9546 12.0277 38.8305 12.6774 38.8305 13.4466C38.8305 14.2188 38.9561 14.8716 39.2073 15.405C39.4585 15.9385 39.8028 16.3432 40.2401 16.6192C40.6774 16.8952 41.1751 17.0332 41.7334 17.0332C42.2513 17.0332 42.7025 16.9278 43.0871 16.7169C43.4748 16.506 43.774 16.2083 43.9849 15.8237C44.1989 15.4361 44.3059 14.9802 44.3059 14.456L44.6781 14.5258H41.952V13.3396H45.6969V14.4235C45.6969 15.2236 45.5263 15.9183 45.1851 16.5076C44.8471 17.0937 44.3788 17.5465 43.7802 17.8659C43.1848 18.1854 42.5025 18.3451 41.7334 18.3451C40.8712 18.3451 40.1145 18.1466 39.4632 17.7496C38.815 17.3527 38.3095 16.7898 37.9466 16.061C37.5838 15.3291 37.4024 14.4607 37.4024 13.4559C37.4024 12.696 37.5078 12.0137 37.7187 11.409C37.9296 10.8042 38.2258 10.291 38.6072 9.86918C38.9918 9.44429 39.443 9.12021 39.961 8.89691C40.482 8.67051 41.0511 8.55731 41.6682 8.55731C42.1831 8.55731 42.6622 8.6333 43.1057 8.78526C43.5523 8.93723 43.9493 9.15277 44.2966 9.43189C44.6471 9.71101 44.937 10.0429 45.1665 10.4274C45.396 10.8089 45.5511 11.2322 45.6317 11.6974H44.1571ZM52.7179 11.1903C52.6683 10.75 52.4636 10.4088 52.1038 10.1669C51.7441 9.9219 51.2913 9.7994 50.7454 9.7994C50.3547 9.7994 50.0166 9.86142 49.7313 9.98548C49.446 10.1064 49.2242 10.2739 49.0661 10.4879C48.911 10.6988 48.8335 10.9391 48.8335 11.2089C48.8335 11.4353 48.8862 11.6307 48.9916 11.7951C49.1002 11.9595 49.2413 12.0975 49.415 12.2091C49.5917 12.3177 49.7809 12.4092 49.9825 12.4836C50.1841 12.5549 50.3779 12.6138 50.564 12.6604L51.4944 12.9023C51.7983 12.9767 52.11 13.0775 52.4294 13.2047C52.7489 13.3318 53.0451 13.4993 53.318 13.7071C53.5909 13.9149 53.8111 14.1723 53.9786 14.4793C54.1491 14.7863 54.2344 15.1538 54.2344 15.5818C54.2344 16.1214 54.0949 16.6006 53.8157 17.0193C53.5397 17.438 53.1381 17.7683 52.6109 18.0102C52.0868 18.2521 51.4525 18.373 50.7082 18.373C49.9949 18.373 49.3777 18.2598 48.8567 18.0334C48.3357 17.807 47.9279 17.486 47.6332 17.0705C47.3386 16.6518 47.1758 16.1556 47.1448 15.5818H48.5869C48.6148 15.9261 48.7265 16.2129 48.9218 16.4424C49.1203 16.6688 49.3731 16.8379 49.6801 16.9495C49.9903 17.058 50.3299 17.1123 50.6989 17.1123C51.1052 17.1123 51.4665 17.0487 51.7828 16.9216C52.1023 16.7913 52.3535 16.6115 52.5364 16.382C52.7194 16.1494 52.8109 15.878 52.8109 15.5679C52.8109 15.2856 52.7303 15.0546 52.569 14.8747C52.4108 14.6948 52.1953 14.546 51.9224 14.4281C51.6526 14.3103 51.3471 14.2064 51.0059 14.1164L49.8802 13.8094C49.1172 13.6016 48.5125 13.2961 48.0659 12.893C47.6224 12.4898 47.4006 11.9564 47.4006 11.2927C47.4006 10.7437 47.5495 10.2646 47.8472 9.85522C48.145 9.44584 48.5481 9.12796 49.0568 8.90156C49.5654 8.67206 50.1391 8.55731 50.778 8.55731C51.4231 8.55731 51.9922 8.67051 52.4853 8.89691C52.9815 9.12331 53.3723 9.43499 53.6576 9.83196C53.9429 10.2258 54.0918 10.6786 54.1042 11.1903H52.7179Z" fill="#090F1D"/>
<defs>
<linearGradient id="paint0_linear_1_1246" x1="0" y1="13.785" x2="65.61" y2="13.785" gradientUnits="userSpaceOnUse">
<stop stop-color="#F5CB94"/>
<stop offset="1" stop-color="#99D2EC"/>
</linearGradient>
</defs>
</svg>
