<svg width="21" height="22" viewBox="0 0 21 22" fill="none" xmlns="http://www.w3.org/2000/svg">
<g clip-path="url(#clip0_1_1826)">
<path fill-rule="evenodd" clip-rule="evenodd" d="M10.5 0.628418C4.70077 0.628418 0 5.32918 0 11.1284C0 16.9276 4.70077 21.6284 10.5 21.6284C16.2992 21.6284 21 16.9276 21 11.1284C21 5.32918 16.2992 0.628418 10.5 0.628418ZM8.64769 8.13457C8.57375 8.05521 8.48458 7.99156 8.3855 7.94742C8.28643 7.90327 8.17947 7.87954 8.07102 7.87762C7.96257 7.87571 7.85485 7.89566 7.75428 7.93628C7.65371 7.9769 7.56235 8.03737 7.48565 8.11407C7.40895 8.19076 7.34849 8.28212 7.30787 8.38269C7.26725 8.48327 7.2473 8.59099 7.24921 8.69944C7.25112 8.80789 7.27486 8.91484 7.31901 9.01392C7.36315 9.11299 7.4268 9.20216 7.50615 9.27611L9.35846 11.1284L7.50615 12.9807C7.4268 13.0546 7.36315 13.1438 7.31901 13.2429C7.27486 13.3419 7.25112 13.4489 7.24921 13.5574C7.2473 13.6658 7.26725 13.7735 7.30787 13.8741C7.34849 13.9747 7.40895 14.066 7.48565 14.1427C7.56235 14.2194 7.65371 14.2799 7.75428 14.3205C7.85485 14.3611 7.96257 14.3811 8.07102 14.3792C8.17947 14.3773 8.28643 14.3535 8.3855 14.3094C8.48458 14.2652 8.57375 14.2016 8.64769 14.1222L10.5 12.2699L12.3523 14.1222C12.4263 14.2016 12.5154 14.2652 12.6145 14.3094C12.7136 14.3535 12.8205 14.3773 12.929 14.3792C13.0374 14.3811 13.1451 14.3611 13.2457 14.3205C13.3463 14.2799 13.4377 14.2194 13.5143 14.1427C13.591 14.066 13.6515 13.9747 13.6921 13.8741C13.7328 13.7735 13.7527 13.6658 13.7508 13.5574C13.7489 13.4489 13.7251 13.3419 13.681 13.2429C13.6369 13.1438 13.5732 13.0546 13.4938 12.9807L11.6415 11.1284L13.4938 9.27611C13.5732 9.20216 13.6369 9.11299 13.681 9.01392C13.7251 8.91484 13.7489 8.80789 13.7508 8.69944C13.7527 8.59099 13.7328 8.48327 13.6921 8.38269C13.6515 8.28212 13.591 8.19076 13.5143 8.11407C13.4377 8.03737 13.3463 7.9769 13.2457 7.93628C13.1451 7.89566 13.0374 7.87571 12.929 7.87762C12.8205 7.87954 12.7136 7.90327 12.6145 7.94742C12.5154 7.99156 12.4263 8.05521 12.3523 8.13457L10.5 9.98688L8.64769 8.13457Z" fill="#E8940D"/>
</g>
<defs>
<clipPath id="clip0_1_1826">
<rect width="21" height="22" fill="white"/>
</clipPath>
</defs>
</svg>
