<svg width="21" height="22" viewBox="0 0 21 22" fill="none" xmlns="http://www.w3.org/2000/svg">
<g clip-path="url(#clip0_1_1752)">
<path fill-rule="evenodd" clip-rule="evenodd" d="M0 11.1284C0 5.32918 4.70077 0.628418 10.5 0.628418C16.2992 0.628418 21 5.32918 21 11.1284C21 16.9276 16.2992 21.6284 10.5 21.6284C4.70077 21.6284 0 16.9276 0 11.1284ZM14.3877 9.17488C14.4523 9.08878 14.4991 8.99063 14.5252 8.88621C14.5513 8.78178 14.5563 8.67318 14.5399 8.5668C14.5235 8.46041 14.486 8.35838 14.4295 8.2667C14.3731 8.17503 14.2989 8.09556 14.2114 8.03296C14.1238 7.97036 14.0246 7.92591 13.9196 7.9022C13.8146 7.87849 13.7059 7.87601 13.5999 7.89491C13.4939 7.91381 13.3928 7.9537 13.3025 8.01224C13.2121 8.07078 13.1344 8.14679 13.0738 8.2358L9.58892 13.1142L7.84 11.3653C7.68689 11.2226 7.48438 11.145 7.27513 11.1486C7.06588 11.1523 6.86624 11.2371 6.71825 11.3851C6.57027 11.5331 6.4855 11.7327 6.48181 11.942C6.47812 12.1512 6.55579 12.3537 6.69846 12.5068L9.12154 14.9299C9.20445 15.0128 9.3044 15.0766 9.41445 15.1169C9.5245 15.1573 9.64201 15.1732 9.75882 15.1635C9.87564 15.1539 9.98895 15.119 10.0909 15.0611C10.1929 15.0033 10.281 14.924 10.3492 14.8287L14.3877 9.17488Z" fill="#09A961"/>
</g>
<defs>
<clipPath id="clip0_1_1752">
<rect width="21" height="22" fill="white"/>
</clipPath>
</defs>
</svg>
